<?xml version="1.0" encoding="utf-8"?>
<!-- Svg Vector Icons : http://www.onlinewebfonts.com/icon -->
<!DOCTYPE svg PUBLIC "-//W3C//DTD SVG 1.1//EN" "http://www.w3.org/Graphics/SVG/1.1/DTD/svg11.dtd">
<svg version="1.1" xmlns="http://www.w3.org/2000/svg" xmlns:xlink="http://www.w3.org/1999/xlink" x="0px" y="0px" viewBox="0 0 1000 1000" enable-background="new 0 0 1000 1000" xml:space="preserve">
<metadata> Svg Vector Icons : http://www.onlinewebfonts.com/icon </metadata>
<g><path fill="#FFF" d="M986.2,52.6c-3.1-2.4-7.2-2.8-10.6-1l-960.2,491c-3.6,1.8-5.7,5.6-5.4,9.6c0.4,4,3.1,7.4,6.9,8.6L338.3,663c3.4,1.1,7,0.3,9.6-2.1l444.7-400.6l-355,420.2c-2.1,2.5-2.9,6-1.9,9.2c0.9,3.2,3.4,5.7,6.6,6.7l356.7,108.6c0.9,0.3,1.9,0.4,2.9,0.4c1.7,0,3.4-0.4,4.9-1.3c2.4-1.3,4.1-3.6,4.7-6.3L989.7,62.7C990.6,59,989.3,55,986.2,52.6z"/><path fill="#FFF" d="M546.6,774.4L448,744.1c-3-1-6.3-0.4-8.8,1.5c-2.5,1.9-4,4.8-4,8v186c0,4.4,2.9,8.3,7.1,9.5c0.9,0.3,1.8,0.4,2.8,0.4c3.3,0,6.5-1.7,8.3-4.6l98.6-155.7c1.7-2.6,2-5.8,0.9-8.7C551.9,777.6,549.6,775.3,546.6,774.4z"/></g>
</svg>
